<svg width="100" xmlns="http://www.w3.org/2000/svg" height="100" viewBox="3347 222 100 100" fill="none"><path d="M3392.219,321.827C3381.465,320.716,3371.505,316.257,3363.347,308.899C3357.384,303.521,3352.828,296.829,3350.027,289.332C3345.240,276.520,3346.161,262.038,3352.571,249.333C3354.861,244.794,3357.736,240.811,3361.554,236.890C3365.905,232.421,3369.515,229.799,3375.072,227.071C3382.218,223.565,3388.863,222.006,3396.692,222.000C3400.752,221.997,3402.761,222.183,3406.531,222.911C3414.571,224.465,3422.247,228.073,3428.478,233.226C3430.574,234.959,3433.730,238.123,3435.446,240.211C3443.573,250.098,3447.701,262.606,3446.902,274.931C3446.074,287.719,3440.764,299.208,3431.648,307.933C3423.293,315.929,3412.942,320.699,3401.472,321.839C3399.255,322.059,3394.406,322.053,3392.219,321.827ZZM3391.068,319.284C3391.249,318.975,3390.790,311.444,3390.354,307.580C3389.744,302.170,3389.720,302.558,3390.671,302.406C3391.837,302.219,3393.780,301.347,3394.951,300.483C3399.242,297.316,3400.840,290.999,3398.843,285.097C3397.485,281.084,3394.986,277.843,3391.411,275.456C3390.625,274.931,3389.951,274.476,3389.912,274.444C3389.873,274.413,3390.092,273.985,3390.397,273.495C3390.703,273.005,3391.070,272.310,3391.213,271.952C3391.599,270.988,3391.524,269.051,3391.060,268.015C3390.530,266.830,3388.838,265.196,3386.489,263.598C3383.694,261.698,3381.354,259.447,3380.522,257.858C3379.162,255.262,3378.766,251.876,3379.683,250.687C3379.898,250.409,3380.054,250.429,3381.502,250.924C3382.374,251.222,3383.483,251.468,3383.968,251.470C3384.837,251.474,3384.858,251.460,3385.415,250.497C3386.127,249.264,3386.721,247.388,3386.721,246.369C3386.721,245.654,3386.779,245.558,3387.388,245.268C3387.754,245.094,3388.027,244.889,3387.993,244.813C3387.960,244.737,3387.687,244.183,3387.387,243.583C3386.666,242.142,3386.577,240.919,3387.088,239.466C3387.882,237.207,3387.779,235.543,3386.763,234.207C3385.639,232.727,3382.470,231.211,3379.673,230.815C3375.614,230.240,3371.542,232.277,3369.846,235.732C3368.730,238.006,3368.637,239.454,3369.443,242.033C3369.837,243.293,3369.837,243.298,3369.473,243.973C3369.254,244.379,3368.698,244.908,3368.083,245.294C3366.568,246.246,3366.045,246.790,3365.451,248.030C3364.768,249.453,3364.760,250.439,3365.408,253.088C3366.058,255.748,3366.088,257.576,3365.501,258.779C3364.968,259.870,3363.675,261.032,3362.523,261.455C3361.238,261.927,3361.219,262.039,3362.397,262.186C3365.222,262.539,3366.797,261.845,3367.923,259.755C3368.575,258.544,3369.571,255.402,3369.575,254.546C3369.575,254.337,3370.050,253.718,3370.656,253.135C3371.250,252.565,3372.230,251.331,3372.833,250.393C3373.436,249.456,3373.963,248.722,3374.003,248.762C3374.044,248.802,3374.077,249.519,3374.077,250.355C3374.077,251.621,3373.994,252.044,3373.585,252.880C3373.314,253.433,3372.766,254.164,3372.368,254.504C3371.727,255.053,3371.609,255.288,3371.350,256.539C3371.189,257.317,3370.892,258.436,3370.689,259.025C3370.396,259.873,3370.320,260.584,3370.322,262.440C3370.326,266.515,3371.227,269.817,3373.614,274.507C3374.947,277.128,3375.743,279.182,3376.179,281.129C3376.485,282.500,3376.621,285.331,3376.452,286.820C3376.131,289.639,3375.549,291.178,3373.304,295.139C3371.147,298.943,3370.165,301.033,3369.973,302.225C3369.709,303.867,3370.100,306.063,3371.114,308.626C3371.580,309.804,3372.055,311.120,3372.170,311.550C3372.286,311.981,3372.510,312.463,3372.668,312.621C3373.897,313.849,3378.697,316.223,3382.341,317.406C3384.394,318.073,3388.989,319.152,3390.857,319.406C3390.928,319.416,3391.023,319.361,3391.068,319.284ZZM3355.676,277.403C3360.251,275.468,3362.614,274.480,3367.881,272.304C3368.847,271.906,3369.661,271.555,3369.691,271.525C3369.721,271.495,3369.498,270.701,3369.196,269.761C3368.629,268.003,3368.085,265.134,3368.084,263.900C3368.083,263.517,3368.048,263.202,3368.005,263.202C3367.962,263.202,3367.522,263.405,3367.027,263.654C3364.540,264.900,3361.488,264.749,3359.095,263.263C3358.205,262.710,3357.808,262.095,3357.695,261.092L3357.605,260.289L3359.488,260.085C3363.417,259.658,3364.394,258.205,3363.442,254.204C3362.860,251.762,3362.796,250.806,3363.113,249.311C3363.632,246.859,3364.846,245.084,3366.842,243.858C3367.624,243.377,3367.614,243.481,3367.080,241.522C3366.533,239.510,3366.807,236.673,3367.723,234.880C3368.205,233.937,3368.087,234.004,3365.815,235.967C3360.937,240.182,3357.226,245.024,3354.287,251.009C3350.982,257.741,3349.509,263.599,3349.309,270.818C3349.215,274.202,3349.470,279.130,3349.764,279.639C3349.884,279.847,3350.056,279.782,3355.676,277.403ZZM3366.219,276.869C3368.936,276.288,3371.226,275.751,3371.309,275.677C3371.505,275.501,3370.683,273.814,3370.401,273.814C3370.164,273.814,3360.791,277.865,3360.632,278.037C3360.579,278.094,3360.702,278.094,3360.907,278.034C3361.112,277.975,3363.503,277.451,3366.219,276.869ZZM3404.910,267.298C3406.368,266.018,3407.546,264.955,3407.528,264.937C3407.427,264.830,3406.199,264.720,3404.949,264.707L3403.514,264.692L3403.766,264.087C3404.673,261.909,3406.263,257.043,3406.945,254.360C3407.387,252.619,3407.731,251.176,3407.709,251.154C3407.664,251.107,3405.313,253.787,3402.860,256.682C3401.947,257.760,3399.810,260.220,3398.111,262.150L3395.023,265.659L3394.442,264.968C3394.123,264.588,3393.240,263.411,3392.481,262.352C3391.722,261.293,3391.059,260.426,3391.008,260.424C3390.957,260.423,3390.652,260.775,3390.332,261.207C3389.168,262.775,3389.128,262.555,3390.908,264.354C3392.909,266.376,3393.483,267.497,3393.586,269.588C3393.642,270.731,3393.567,271.321,3393.234,272.356C3392.878,273.462,3392.853,273.696,3393.074,273.822C3393.219,273.904,3393.836,274.346,3394.444,274.803L3395.551,275.633L3398.905,272.629C3400.750,270.977,3403.452,268.578,3404.910,267.298ZZM3444.399,266.739C3443.310,257.666,3439.807,249.285,3434.130,242.166C3432.518,240.144,3428.648,236.271,3426.618,234.648C3418.979,228.538,3409.215,224.803,3399.643,224.331C3391.986,223.954,3385.471,225.048,3378.748,227.843C3377.761,228.253,3376.936,228.607,3376.914,228.629C3376.892,228.651,3377.685,228.674,3378.676,228.680C3380.958,228.694,3382.549,229.093,3384.987,230.265C3388.049,231.738,3389.599,233.542,3389.825,235.897C3389.891,236.580,3389.778,237.389,3389.438,238.678C3388.786,241.146,3388.812,241.775,3389.637,243.443C3390.229,244.639,3390.295,244.905,3390.150,245.490C3390.038,245.941,3389.786,246.286,3389.384,246.538C3388.911,246.834,3388.784,247.042,3388.778,247.527C3388.770,248.271,3387.179,251.694,3386.435,252.570C3385.474,253.701,3384.271,253.956,3382.450,253.416C3381.909,253.256,3381.425,253.165,3381.376,253.214C3381.205,253.385,3381.884,255.629,3382.391,256.564C3383.033,257.750,3384.562,259.412,3386.012,260.501C3386.627,260.963,3387.185,261.339,3387.252,261.337C3387.319,261.335,3388.165,260.251,3389.132,258.928C3390.100,257.604,3390.949,256.557,3391.020,256.601C3391.091,256.645,3392.013,257.855,3393.069,259.290C3394.125,260.725,3395.049,261.899,3395.122,261.899C3395.195,261.899,3398.388,258.255,3402.217,253.801C3406.047,249.348,3409.234,245.704,3409.301,245.703C3409.368,245.703,3412.456,249.242,3416.163,253.568C3419.870,257.894,3422.960,261.453,3423.031,261.475C3423.101,261.498,3424.121,260.841,3425.297,260.015C3427.266,258.632,3427.468,258.533,3427.840,258.763C3428.061,258.901,3429.951,260.532,3432.038,262.387C3434.125,264.242,3437.803,267.453,3440.212,269.522L3444.592,273.284L3444.646,271.268C3444.676,270.160,3444.565,268.122,3444.399,266.739ZZM3439.841,272.369C3439.484,272.088,3437.218,270.142,3434.806,268.043C3428.719,262.744,3428.092,262.213,3428.022,262.294C3427.989,262.333,3427.836,262.932,3427.683,263.625L3427.405,264.886L3430.873,267.079C3432.780,268.285,3435.431,269.933,3436.764,270.741C3438.097,271.548,3439.387,272.361,3439.631,272.546C3439.876,272.731,3440.169,272.882,3440.284,272.881C3440.398,272.879,3440.199,272.649,3439.841,272.369ZZM3423.807,267.109L3425.014,266.375L3425.416,264.463C3425.636,263.411,3425.802,262.532,3425.782,262.510C3425.763,262.487,3425.062,262.927,3424.225,263.487C3423.387,264.047,3422.625,264.506,3422.530,264.506C3422.436,264.506,3421.029,262.939,3419.403,261.024C3415.628,256.576,3411.511,251.887,3410.855,251.288C3410.401,250.874,3410.357,250.863,3410.458,251.195C3410.520,251.400,3410.779,252.408,3411.033,253.437L3411.495,255.306L3411.129,256.478C3410.649,258.020,3410.664,258.474,3411.209,258.831C3411.556,259.058,3411.922,259.094,3412.886,258.995C3414.342,258.846,3414.244,258.513,3413.844,262.264C3413.697,263.643,3413.596,264.790,3413.620,264.814C3413.644,264.838,3414.026,264.879,3414.469,264.905C3415.177,264.947,3415.354,265.054,3415.945,265.800C3416.314,266.265,3416.669,266.712,3416.734,266.792C3416.798,266.871,3417.419,266.051,3418.114,264.969L3419.377,263.002L3420.495,264.824C3421.110,265.826,3421.746,266.919,3421.908,267.251C3422.070,267.584,3422.292,267.854,3422.401,267.850C3422.510,267.846,3423.143,267.513,3423.807,267.109ZZ" style="fill: rgb(241, 60, 32); fill-opacity: 1;" class="fills"/></svg>